<?xml version="1.0" encoding="UTF-8"?>
<svg width="91px" height="90px" viewBox="0 0 91 90" version="1.1" xmlns="http://www.w3.org/2000/svg" xmlns:xlink="http://www.w3.org/1999/xlink">
    <!-- Generator: Sketch 47.1 (45422) - http://www.bohemiancoding.com/sketch -->
    <title>tinder-outline</title>
    <desc>Created with Sketch.</desc>
    <defs></defs>
    <g id="Page-1" stroke="none" stroke-width="1" fill="none" fill-rule="evenodd">
        <g id="tinder-outline" fill-rule="nonzero" fill="#000000">
            <g id="Group">
                <path d="M45.234,90 C20.429,90 0.249,69.82 0.249,45.015 C0.249,20.21 20.429,0.03 45.234,0.03 C70.039,0.03 90.219,20.21 90.219,45.015 C90.219,69.82 70.039,90 45.234,90 Z M45.234,4.398 C22.838,4.398 4.617,22.619 4.617,45.015 C4.617,67.411 22.838,85.632 45.234,85.632 C67.63,85.632 85.851,67.411 85.851,45.015 C85.851,22.619 67.63,4.398 45.234,4.398 Z" id="Shape"></path>
                <path d="M25.041,64.644 L36.364,37.279 C36.584,36.748 37.006,36.327 37.538,36.11 L64.955,24.914 C65.253,24.792 65.549,25.09 65.426,25.387 L54.104,52.752 C53.884,53.283 53.462,53.704 52.93,53.921 L25.512,65.117 C25.215,65.238 24.918,64.941 25.041,64.644 Z M39.703,40.633 L32.823,57.26 C32.795,57.328 32.863,57.397 32.931,57.369 L49.591,50.566 C50.123,50.349 50.546,49.928 50.765,49.397 L57.645,32.77 C57.673,32.702 57.605,32.633 57.537,32.661 L40.877,39.464 C40.345,39.682 39.923,40.103 39.703,40.633 Z" id="Shape"></path>
            </g>
        </g>
    </g>
</svg>