<?xml version="1.0" encoding="UTF-8"?>
<svg width="90px" height="90px" viewBox="0 0 90 90" version="1.1" xmlns="http://www.w3.org/2000/svg" xmlns:xlink="http://www.w3.org/1999/xlink">
    <g id="Page-1" stroke="none" stroke-width="1" fill="none" fill-rule="evenodd">
        <g id="setting" fill-rule="nonzero" fill="#000000">
            <path d="M82.76,45.631 C82.76,44.871 82.691,44.129 82.646,43.381 L90,42.085 L88.508,33.607 L81.181,34.898 C79.472,29.164 76.424,24.015 72.412,19.778 L77.216,14.052 L70.621,8.518 L65.834,14.224 C61.014,11.031 55.423,8.924 49.403,8.235 L49.403,0.797 L40.795,0.797 L40.795,8.236 C34.775,8.925 29.185,11.032 24.366,14.224 L19.58,8.519 L12.985,14.053 L17.788,19.778 C13.775,24.015 10.727,29.164 9.018,34.899 L1.695,33.608 L0.199,42.086 L7.553,43.382 C7.508,44.131 7.439,44.873 7.439,45.632 C7.439,50.952 8.562,56.011 10.561,60.604 L4.121,64.322 L8.425,71.776 L14.901,68.038 C18.41,72.755 22.981,76.618 28.276,79.277 L25.724,86.29 L33.811,89.234 L36.361,82.227 C39.171,82.898 42.088,83.292 45.101,83.292 C48.115,83.292 51.032,82.898 53.843,82.226 L56.393,89.233 L64.48,86.289 L61.927,79.276 C67.221,76.617 71.792,72.754 75.301,68.037 L81.778,71.776 L86.082,64.322 L79.64,60.603 C81.637,56.009 82.76,50.951 82.76,45.631 Z M45.099,74.684 C29.078,74.684 16.046,61.651 16.046,45.631 C16.046,29.611 29.078,16.578 45.099,16.578 C61.12,16.578 74.152,29.611 74.152,45.631 C74.152,61.651 61.12,74.684 45.099,74.684 Z" id="Shape"></path>
        </g>
    </g>
</svg>