<?xml version="1.0" encoding="UTF-8"?>
<svg width="78px" height="90px" viewBox="0 0 78 90" version="1.1" xmlns="http://www.w3.org/2000/svg" xmlns:xlink="http://www.w3.org/1999/xlink">
    <g id="Page-1" stroke="none" stroke-width="1" fill="none" fill-rule="evenodd">
        <g id="share" fill-rule="nonzero" fill="#999">
            <path d="M49.297,0.849 C48.37,-0.078 46.867,-0.078 45.939,0.849 C45.012,1.776 45.012,3.279 45.939,4.207 L68.198,26.465 L39.104,26.465 C23.598,26.465 12.691,35.578 7.655,44.106 C3.111,51.798 0.709,60.916 0.709,70.474 L0.709,87.395 C0.709,88.706 1.772,89.769 3.083,89.769 C4.394,89.769 5.457,88.706 5.457,87.395 L5.457,70.473 C5.457,61.764 7.63,53.481 11.743,46.52 C16.113,39.12 25.596,31.213 39.104,31.213 L68.257,31.213 L45.863,53.932 C44.942,54.866 44.953,56.369 45.887,57.29 C46.35,57.746 46.952,57.974 47.554,57.974 C48.167,57.974 48.78,57.738 49.245,57.266 L77.276,28.828 L49.297,0.849 Z" id="Shape"></path>
        </g>
    </g>
</svg>